<?xml version="1.0" encoding="UTF-8" standalone="no"?>
<svg
   xmlns:dc="http://purl.org/dc/elements/1.1/"
   xmlns:cc="http://creativecommons.org/ns#"
   xmlns:rdf="http://www.w3.org/1999/02/22-rdf-syntax-ns#"
   xmlns:svg="http://www.w3.org/2000/svg"
   xmlns="http://www.w3.org/2000/svg"
   width="281.0788mm"
   height="42.661491mm"
   viewBox="0 0 281.07879 42.661491"
   version="1.1"
   id="svg8">
  <defs
     id="defs2" />
  <metadata
     id="metadata5">
    <rdf:RDF>
      <cc:Work
         rdf:about="">
        <dc:format>image/svg+xml</dc:format>
        <dc:type
           rdf:resource="http://purl.org/dc/dcmitype/StillImage" />
        <dc:title></dc:title>
      </cc:Work>
    </rdf:RDF>
  </metadata>
  <g
     id="layer1"
     transform="translate(-172.60527,-230.94637)">
    <g
       aria-label="Girls Generation"
       id="text1087"
       style="font-size:52.5112px;font-family:'Loki Cola';-inkscape-font-specification:'Loki Cola';letter-spacing:0px;fill:#eb3587;fill-opacity:1;stroke:#eb3587;stroke-width:0.6;stroke-miterlimit:4;stroke-dasharray:none;stroke-opacity:1">
      <path
         d="m 210.66082,236.9701 q 0,4.46346 -5.6187,9.97713 -7.71914,7.61413 -15.91089,8.97942 0.9452,2.8356 5.46116,2.8356 3.2557,0 6.82646,-1.73287 1.73287,-0.84018 5.35614,-3.36071 2.52054,-1.73287 2.94063,-1.73287 h 0.31507 l 0.10502,0.10502 q -1.31278,1.78538 -1.73287,2.52054 -0.68265,1.15524 -1.20776,2.8356 -2.15296,6.98399 -3.15067,8.76937 -4.04336,7.14153 -14.91318,7.14153 -4.56848,0 -7.71915,-1.47032 -4.14838,-1.94291 -4.14838,-5.98628 0,-2.25798 1.47031,-3.72829 1.47031,-1.52283 3.7283,-1.52283 1.52282,0 2.57304,0.84018 1.05023,0.78767 1.05023,2.25799 0,1.83789 -1.47031,2.62556 -1.31278,0.42009 -2.62556,0.84017 -1.68036,0.73516 -1.68036,1.78539 0,1.68035 2.78309,2.57304 1.8904,0.63014 4.09587,0.63014 4.51597,0 8.66435,-5.1461 2.04794,-2.57305 5.6187,-9.08444 -3.57076,1.89041 -7.0365,1.89041 -4.56847,0 -7.71915,-3.67579 l -2.363,0.10503 q -4.72601,0 -7.92919,-2.46803 -3.51825,-2.67807 -3.51825,-7.29906 0,-4.62098 3.46574,-8.24426 2.99314,-3.15067 7.77165,-4.77852 1.8379,-0.63013 2.88812,-0.63013 0.63013,0 0.63013,0.4726 0,0.15753 -2.10044,1.20776 l -2.57305,1.31278 q -2.94063,1.8904 -5.09359,5.35614 -2.31049,3.67578 -2.31049,6.98399 0,3.41323 2.57305,5.40865 2.31049,1.8379 5.82874,1.8379 0.9452,0 2.15296,-0.21005 -1.20776,-2.94063 -1.20776,-5.51367 0,-8.34929 10.02964,-14.23054 5.67121,-3.36072 10.13466,-3.36072 2.36301,0 3.88583,1.20776 1.68036,1.36529 1.68036,3.67578 z m -0.99771,-0.31506 q 0,-3.51825 -3.30821,-3.51825 -3.67578,0 -8.9269,6.0913 -7.5091,8.66434 -8.40179,15.70085 7.87668,-1.41781 15.4908,-9.29449 5.1461,-5.30363 5.1461,-8.97941 z"
         style="fill:#eb3587;fill-opacity:1;stroke:#eb3587;stroke-width:0.6;stroke-miterlimit:4;stroke-dasharray:none;stroke-opacity:1"
         id="path1202" />
      <path
         d="m 219.48259,246.21208 q 0,1.83789 -0.63014,2.46802 -0.63013,0.57763 -2.46802,0.57763 -2.10045,0 -2.10045,-1.05023 v -2.31049 q 0,-0.68265 1.31278,-1.31278 1.31278,-0.68265 2.10045,-0.68265 1.78538,0 1.78538,2.3105 z m -2.57305,15.22824 q 0,2.36301 -3.7283,6.03879 -3.72829,3.67579 -6.14381,3.67579 -2.52053,0 -2.52053,-3.51825 0,-1.89041 1.4178,-4.35843 l 2.363,-4.09588 q 0.42009,-0.9452 2.73058,-6.30134 h 5.56619 q -4.25341,7.45659 -6.30134,13.44287 l 0.52511,0.36757 q 1.99543,-0.68264 3.36072,-2.8356 1.47031,-2.41552 2.363,-2.88812 h 0.21005 q 0.15753,0.15754 0.15753,0.4726 z"
         style="fill:#eb3587;fill-opacity:1;stroke:#eb3587;stroke-width:0.6;stroke-miterlimit:4;stroke-dasharray:none;stroke-opacity:1"
         id="path1204" />
      <path
         d="m 234.39568,254.08876 q 0,1.52282 -1.10273,3.09816 -1.20776,1.78538 -2.62556,1.78538 -0.26256,0 -0.94521,-0.52511 -0.31506,-0.63014 -0.31506,-0.89269 0,-1.20776 1.15524,-2.25799 1.15525,-1.10273 2.3105,-0.89269 v -0.4726 q 0,-0.73515 -1.57534,-0.73515 h -0.31507 q -0.73515,0 -3.62327,2.52053 -2.8356,2.46803 -3.46574,3.41323 -1.57533,2.36301 -3.25569,5.93377 -1.31278,3.09816 -2.67807,6.19632 l -5.25112,-0.10502 5.14609,-10.97484 q 0.42009,-0.78767 1.26027,-2.3105 0.84018,-1.57533 0.84018,-2.25798 0,-0.84018 -0.4726,-0.84018 -0.21004,0 -1.62785,1.52283 -1.36529,1.52282 -1.73287,1.52282 -0.0525,-0.0525 -0.21004,-0.10502 l -0.0525,-0.15753 q 0.0525,-0.94521 2.94063,-4.04337 2.94062,-3.15067 3.83331,-3.15067 2.36301,0 2.36301,4.04336 0,0.4726 0.26255,0.4726 0,0 2.67807,-1.73287 2.67808,-1.78538 3.99086,-1.78538 0.9452,0 1.68035,0.89269 0.78767,0.89269 0.78767,1.8379 z"
         style="fill:#eb3587;fill-opacity:1;stroke:#eb3587;stroke-width:0.6;stroke-miterlimit:4;stroke-dasharray:none;stroke-opacity:1"
         id="path1206" />
      <path
         d="m 259.60105,233.03176 q 0,1.8379 -1.20776,3.93834 -5.04108,8.8744 -14.80816,17.38121 -1.68036,1.4178 -5.04107,4.2009 -0.73516,0.63013 -1.62785,3.41323 -0.78767,2.57304 -0.84018,3.88582 l 0.57762,1.26027 q 0.21005,0.0525 0.26256,0.0525 1.10273,0 3.20318,-2.46802 2.10045,-2.46803 2.73058,-2.46803 0.26256,0 0.26256,0.26256 0,0.63013 -2.31049,3.36071 -4.62099,5.46117 -6.72144,5.46117 -1.31278,0 -2.20547,-0.9452 -0.84018,-0.99771 -0.84018,-2.31049 0,-3.2557 1.8379,-8.19175 3.36071,-9.03193 9.97712,-17.74879 8.24426,-10.86982 13.96798,-10.86982 2.7831,0 2.7831,1.78538 z m -1.57534,0.99772 q -0.57762,-1.05023 -0.89269,-1.05023 -3.51825,0 -10.34471,9.92462 -5.77623,8.40179 -7.66663,13.6004 4.35843,-2.88811 10.97484,-10.34471 7.29906,-8.19174 7.92919,-12.13008 z"
         style="fill:#eb3587;fill-opacity:1;stroke:#eb3587;stroke-width:0.6;stroke-miterlimit:4;stroke-dasharray:none;stroke-opacity:1"
         id="path1208" />
      <path
         d="m 257.71062,261.38781 q 0,3.7283 -3.25569,6.98399 -3.2557,3.20319 -6.98399,3.20319 -2.25798,0 -3.99085,-1.10274 -1.99543,-1.26027 -1.99543,-3.36072 0,-1.26027 0.84018,-2.10044 0.78767,-0.84018 2.04794,-0.84018 2.363,0 2.363,2.46802 0,0.84018 -0.63013,1.57534 -0.57763,0.68264 -1.41781,0.68264 -0.52511,0 -0.89269,-0.10502 0.94521,1.05023 2.20547,1.05023 3.20319,0 4.77852,-5.25112 1.10274,-3.67579 1.10274,-7.98171 v -1.68035 q -0.52511,0.36757 -3.67578,3.25569 -3.09817,2.8356 -3.2557,2.8356 -0.52511,0 -0.52511,-0.52511 0,-0.42009 2.62556,-2.8356 1.73287,-1.57534 3.51825,-3.20319 1.94291,-1.8904 2.99314,-3.62327 0.78767,-1.36529 1.36529,-1.36529 0.78767,0 0.78767,0.73516 0,0.15753 -0.89269,1.26027 -0.84018,1.05022 -0.84018,1.62784 0,0.42009 1.83789,3.41323 1.8904,2.94063 1.8904,4.88354 z"
         style="fill:#eb3587;fill-opacity:1;stroke:#eb3587;stroke-width:0.6;stroke-miterlimit:4;stroke-dasharray:none;stroke-opacity:1"
         id="path1210" />
      <path
         d="m 303.65785,236.9701 q 0,4.46346 -5.6187,9.97713 -7.71914,7.61413 -15.91089,8.97942 0.9452,2.8356 5.46117,2.8356 3.25569,0 6.82645,-1.73287 1.73287,-0.84018 5.35614,-3.36071 2.52054,-1.73287 2.94063,-1.73287 h 0.31507 l 0.10502,0.10502 q -1.31278,1.78538 -1.73287,2.52054 -0.68264,1.15524 -1.20776,2.8356 -2.15296,6.98399 -3.15067,8.76937 -4.04336,7.14153 -14.91318,7.14153 -4.56847,0 -7.71915,-1.47032 -4.14838,-1.94291 -4.14838,-5.98628 0,-2.25798 1.47031,-3.72829 1.47032,-1.52283 3.7283,-1.52283 1.52282,0 2.57305,0.84018 1.05022,0.78767 1.05022,2.25799 0,1.83789 -1.47031,2.62556 -1.31278,0.42009 -2.62556,0.84017 -1.68036,0.73516 -1.68036,1.78539 0,1.68035 2.78309,2.57304 1.89041,0.63014 4.09588,0.63014 4.51596,0 8.66434,-5.1461 2.04794,-2.57305 5.6187,-9.08444 -3.57076,1.89041 -7.0365,1.89041 -4.56847,0 -7.71914,-3.67579 l -2.36301,0.10503 q -4.72601,0 -7.92919,-2.46803 -3.51825,-2.67807 -3.51825,-7.29906 0,-4.62098 3.46574,-8.24426 2.99314,-3.15067 7.77166,-4.77852 1.83789,-0.63013 2.88811,-0.63013 0.63014,0 0.63014,0.4726 0,0.15753 -2.10045,1.20776 l -2.57305,1.31278 q -2.94063,1.8904 -5.09359,5.35614 -2.31049,3.67578 -2.31049,6.98399 0,3.41323 2.57305,5.40865 2.31049,1.8379 5.82874,1.8379 0.9452,0 2.15296,-0.21005 -1.20776,-2.94063 -1.20776,-5.51367 0,-8.34929 10.02964,-14.23054 5.67121,-3.36072 10.13467,-3.36072 2.363,0 3.88582,1.20776 1.68036,1.36529 1.68036,3.67578 z m -0.99771,-0.31506 q 0,-3.51825 -3.30821,-3.51825 -3.67578,0 -8.9269,6.0913 -7.5091,8.66434 -8.40179,15.70085 7.87668,-1.41781 15.4908,-9.29449 5.1461,-5.30363 5.1461,-8.97941 z"
         style="fill:#eb3587;fill-opacity:1;stroke:#eb3587;stroke-width:0.6;stroke-miterlimit:4;stroke-dasharray:none;stroke-opacity:1"
         id="path1212" />
      <path
         d="m 316.57558,254.35131 q 0,3.67579 -3.83331,6.40637 -3.04565,2.20547 -7.24655,3.09816 -0.78767,1.99542 -0.78767,3.09816 0,1.26027 0.9452,1.26027 2.20547,0 4.46346,-1.8904 0.99771,-0.84018 3.36071,-3.51825 1.68036,-1.89041 2.3105,-1.89041 0.21004,0 0.21004,0.26256 0,0.57762 -3.20318,4.56847 -4.46345,5.56619 -9.13695,5.56619 -4.41094,0 -4.41094,-4.2009 0,-5.09358 4.46345,-10.60726 4.72601,-5.82874 9.66206,-5.82874 3.20318,0 3.20318,3.67578 z m -2.20547,-0.4726 q 0,-0.78767 -0.26255,-1.26027 -0.21005,-0.10502 -0.4726,-0.10502 -1.73287,0 -4.46346,4.25341 -2.04793,3.15067 -3.25569,5.98627 2.94063,-0.73515 5.56619,-3.3082 2.88811,-2.7831 2.88811,-5.56619 z"
         style="fill:#eb3587;fill-opacity:1;stroke:#eb3587;stroke-width:0.6;stroke-miterlimit:4;stroke-dasharray:none;stroke-opacity:1"
         id="path1214" />
      <path
         d="m 339.99553,263.64579 q -0.15754,1.15525 -2.15296,3.36072 -1.94292,2.15296 -3.15068,2.78309 -1.68035,0.94521 -4.35842,0.94521 -3.57077,0 -3.57077,-3.30821 0,-0.99771 2.3105,-5.51368 2.31049,-4.51596 2.31049,-7.19403 v -0.68265 l -0.0525,0.0525 q -0.10502,-0.89269 -0.78767,-0.89269 l -0.10502,-0.10503 q -0.78767,0.0525 -2.62556,1.99543 -1.52283,1.57533 -2.25798,2.67807 -1.41781,2.10045 -2.99314,6.40637 -1.83789,5.04107 -2.57305,6.5639 l -6.51139,0.42009 5.1461,-10.97484 q 0.42009,-0.78767 1.26027,-2.3105 0.84018,-1.57533 0.84018,-2.25798 0,-0.84018 -0.4726,-0.84018 -0.21005,0 -1.62785,1.52283 -1.36529,1.52282 -1.73287,1.52282 -0.0525,-0.0525 -0.21005,-0.10502 l -0.0525,-0.15753 q 0.10502,-0.99772 2.94063,-4.09588 2.88812,-3.09816 3.83332,-3.09816 2.363,0 2.363,4.04336 0,0.4726 0.26256,0.4726 -0.10503,0 2.57305,-1.68035 2.73058,-1.73287 4.30591,-1.73287 3.46574,0 3.46574,3.51825 0,2.25798 -2.20547,6.77394 -2.20547,4.46345 -2.20547,4.88354 0,0.26256 0.63014,0.73516 2.73058,0 5.09358,-1.8904 0.73516,-0.63014 2.25798,-1.89041 z"
         style="fill:#eb3587;fill-opacity:1;stroke:#eb3587;stroke-width:0.6;stroke-miterlimit:4;stroke-dasharray:none;stroke-opacity:1"
         id="path1216" />
      <path
         d="m 356.64146,254.35131 q 0,3.67579 -3.83332,6.40637 -3.04565,2.20547 -7.24655,3.09816 -0.78767,1.99542 -0.78767,3.09816 0,1.26027 0.94521,1.26027 2.20547,0 4.46345,-1.8904 0.99771,-0.84018 3.36071,-3.51825 1.68036,-1.89041 2.3105,-1.89041 0.21004,0 0.21004,0.26256 0,0.57762 -3.20318,4.56847 -4.46345,5.56619 -9.13695,5.56619 -4.41094,0 -4.41094,-4.2009 0,-5.09358 4.46345,-10.60726 4.72601,-5.82874 9.66206,-5.82874 3.20319,0 3.20319,3.67578 z m -2.20547,-0.4726 q 0,-0.78767 -0.26256,-1.26027 -0.21005,-0.10502 -0.4726,-0.10502 -1.73287,0 -4.46345,4.25341 -2.04794,3.15067 -3.2557,5.98627 2.94063,-0.73515 5.56619,-3.3082 2.88812,-2.7831 2.88812,-5.56619 z"
         style="fill:#eb3587;fill-opacity:1;stroke:#eb3587;stroke-width:0.6;stroke-miterlimit:4;stroke-dasharray:none;stroke-opacity:1"
         id="path1218" />
      <path
         d="m 375.28286,254.08876 q 0,1.52282 -1.10274,3.09816 -1.20775,1.78538 -2.62556,1.78538 -0.26255,0 -0.9452,-0.52511 -0.31507,-0.63014 -0.31507,-0.89269 0,-1.20776 1.15525,-2.25799 1.15525,-1.10273 2.31049,-0.89269 v -0.4726 q 0,-0.73515 -1.57533,-0.73515 h -0.31507 q -0.73516,0 -3.62327,2.52053 -2.83561,2.46803 -3.46574,3.41323 -1.57534,2.36301 -3.2557,5.93377 -1.31278,3.09816 -2.67807,6.19632 l -5.25112,-0.10502 5.1461,-10.97484 q 0.42009,-0.78767 1.26027,-2.3105 0.84018,-1.57533 0.84018,-2.25798 0,-0.84018 -0.4726,-0.84018 -0.21005,0 -1.62785,1.52283 -1.36529,1.52282 -1.73287,1.52282 -0.0525,-0.0525 -0.21004,-0.10502 l -0.0525,-0.15753 q 0.0525,-0.94521 2.94063,-4.04337 2.94063,-3.15067 3.83332,-3.15067 2.363,0 2.363,4.04336 0,0.4726 0.26256,0.4726 0,0 2.67807,-1.73287 2.67807,-1.78538 3.99085,-1.78538 0.9452,0 1.68036,0.89269 0.78767,0.89269 0.78767,1.8379 z"
         style="fill:#eb3587;fill-opacity:1;stroke:#eb3587;stroke-width:0.6;stroke-miterlimit:4;stroke-dasharray:none;stroke-opacity:1"
         id="path1220" />
      <path
         d="m 392.0864,250.72804 q -0.78766,3.04565 -3.83331,7.71915 -3.30821,5.09358 -4.2009,7.5091 l 0.4726,0.31506 q 2.10045,-0.68264 3.7283,-3.09816 1.68035,-2.46802 1.99542,-2.62556 h 0.21005 q 0.21004,0.26256 0.21004,0.57763 0,2.15296 -3.67578,5.93376 -3.67579,3.7283 -5.82875,3.7283 -1.68035,0 -2.31049,-0.84018 -0.15753,-0.21005 -0.89269,-2.31049 -1.78538,3.15067 -4.88354,3.15067 -1.4178,0 -2.46803,-1.20776 -1.05022,-1.20776 -1.05022,-2.62556 0,-3.99085 5.30363,-10.13466 5.35614,-6.19632 9.24197,-6.19632 0.4726,0 1.47032,0.57762 0.99771,0.52511 1.52282,0.57762 0.31507,-0.15753 0.36758,-0.73515 0.57762,-0.4726 2.20547,-0.4726 1.57533,0 2.41551,0.15753 z m -5.98627,2.52054 q -0.15754,-0.68265 -0.9452,-0.68265 -0.73516,0 -1.57534,0.68265 v -0.0525 q -2.57305,2.15295 -4.93605,5.61869 -2.73059,4.04337 -2.73059,6.77395 0,1.10273 0.89269,1.10273 1.20776,0 5.04108,-5.93376 3.41323,-5.30363 4.25341,-7.5091 z"
         style="fill:#eb3587;fill-opacity:1;stroke:#eb3587;stroke-width:0.6;stroke-miterlimit:4;stroke-dasharray:none;stroke-opacity:1"
         id="path1222" />
      <path
         d="m 410.36026,235.97239 -4.14838,7.92919 h 3.88582 l -0.36757,1.41781 h -4.51597 l -8.76937,16.54102 q -0.9452,1.78538 -0.9452,3.99085 l 0.57762,1.26027 q 0.21005,0.0525 0.26256,0.0525 1.10273,0 3.20318,-2.46802 2.10045,-2.46803 2.73059,-2.46803 0.26255,0 0.26255,0.26256 0,0.63013 -2.31049,3.36071 -4.62099,5.46117 -6.72144,5.46117 -1.31278,0 -2.20547,-0.9452 -0.84017,-0.99771 -0.84017,-2.31049 0,-4.35843 2.78309,-10.50224 0.63013,-1.41781 5.19861,-9.76709 l 6.30134,-11.55246 z"
         style="fill:#eb3587;fill-opacity:1;stroke:#eb3587;stroke-width:0.6;stroke-miterlimit:4;stroke-dasharray:none;stroke-opacity:1"
         id="path1224" />
      <path
         d="m 416.13648,246.21208 q 0,1.83789 -0.63014,2.46802 -0.63013,0.57763 -2.46802,0.57763 -2.10045,0 -2.10045,-1.05023 v -2.31049 q 0,-0.68265 1.31278,-1.31278 1.31278,-0.68265 2.10045,-0.68265 1.78538,0 1.78538,2.3105 z m -2.57305,15.22824 q 0,2.36301 -3.7283,6.03879 -3.72829,3.67579 -6.14381,3.67579 -2.52054,0 -2.52054,-3.51825 0,-1.89041 1.41781,-4.35843 l 2.363,-4.09588 q 0.42009,-0.9452 2.73058,-6.30134 h 5.56619 q -4.25341,7.45659 -6.30134,13.44287 l 0.52511,0.36757 q 1.99542,-0.68264 3.36072,-2.8356 1.47031,-2.41552 2.363,-2.88812 h 0.21004 q 0.15754,0.15754 0.15754,0.4726 z"
         style="fill:#eb3587;fill-opacity:1;stroke:#eb3587;stroke-width:0.6;stroke-miterlimit:4;stroke-dasharray:none;stroke-opacity:1"
         id="path1226" />
      <path
         d="m 432.9924,258.70974 q 0,0.63014 -1.52282,0.99771 -1.20776,0.31507 -2.10045,0.31507 -0.57762,0 -1.15525,-0.10502 -1.99542,3.78081 -4.726,6.87897 -3.78081,4.2534 -6.77395,4.2534 -4.14838,0 -4.14838,-3.7808 0,-4.62099 4.56847,-10.39722 4.77852,-5.98628 9.29448,-5.98628 3.57076,0 3.57076,3.30821 0,1.10273 -1.15524,4.30592 0.52511,0.15753 0.9452,0.15753 0.42009,0 1.26027,-0.15753 0.84018,-0.15754 1.26027,-0.15754 0.68264,0 0.68264,0.36758 z m -4.46345,-4.20089 q 0,-1.73287 -1.36529,-1.73287 -0.99771,0 -2.20547,0.9452 -1.20776,0.9452 -1.20776,1.94291 0,0.99771 1.05023,1.89041 1.10273,0.89269 2.15296,0.89269 0.10502,0 0.26255,-0.0525 v -0.0525 q 0.4726,0 0.9452,-1.68036 0.36758,-1.36529 0.36758,-2.15295 z m -1.83789,5.14609 q -2.88812,-0.31506 -4.09587,-2.8356 -0.89269,1.05022 -2.62556,4.51596 v -0.0525 q -0.10503,0.57762 -0.84018,2.20547 -0.63014,1.36529 -0.63014,2.25798 0,1.05023 1.05023,1.05023 3.41322,0 7.14152,-7.14153 z"
         style="fill:#eb3587;fill-opacity:1;stroke:#eb3587;stroke-width:0.6;stroke-miterlimit:4;stroke-dasharray:none;stroke-opacity:1"
         id="path1228" />
      <path
         d="m 453.36673,263.64579 q -0.15754,1.15525 -2.15296,3.36072 -1.94292,2.15296 -3.15067,2.78309 -1.68036,0.94521 -4.35843,0.94521 -3.57077,0 -3.57077,-3.30821 0,-0.99771 2.3105,-5.51368 2.31049,-4.51596 2.31049,-7.19403 v -0.68265 l -0.0525,0.0525 q -0.10502,-0.89269 -0.78767,-0.89269 l -0.10502,-0.10503 q -0.78767,0.0525 -2.62556,1.99543 -1.52283,1.57533 -2.25798,2.67807 -1.41781,2.10045 -2.99314,6.40637 -1.83789,5.04107 -2.57305,6.5639 l -6.51139,0.42009 5.1461,-10.97484 q 0.42009,-0.78767 1.26027,-2.3105 0.84018,-1.57533 0.84018,-2.25798 0,-0.84018 -0.4726,-0.84018 -0.21005,0 -1.62785,1.52283 -1.36529,1.52282 -1.73287,1.52282 -0.0525,-0.0525 -0.21005,-0.10502 l -0.0525,-0.15753 q 0.10503,-0.99772 2.94063,-4.09588 2.88812,-3.09816 3.83332,-3.09816 2.363,0 2.363,4.04336 0,0.4726 0.26256,0.4726 -0.10502,0 2.57305,-1.68035 2.73058,-1.73287 4.30591,-1.73287 3.46574,0 3.46574,3.51825 0,2.25798 -2.20547,6.77394 -2.20547,4.46345 -2.20547,4.88354 0,0.26256 0.63014,0.73516 2.73058,0 5.09358,-1.8904 0.73516,-0.63014 2.25799,-1.89041 z"
         style="fill:#eb3587;fill-opacity:1;stroke:#eb3587;stroke-width:0.6;stroke-miterlimit:4;stroke-dasharray:none;stroke-opacity:1"
         id="path1230" />
    </g>
  </g>
</svg>
