<?xml version="1.0" encoding="utf-8"?>
<!-- Generator: Adobe Illustrator 23.0.0, SVG Export Plug-In . SVG Version: 6.00 Build 0)  -->
<svg version="1.1" xmlns="http://www.w3.org/2000/svg" xmlns:xlink="http://www.w3.org/1999/xlink" x="0px" y="0px"
	 viewBox="0 0 720 800" style="enable-background:new 0 0 720 800;" xml:space="preserve">
	 <title>Pink hearts vector pattern on white background by Shapes4FREE.com</title>
	 <description>Download more freebies at Shapes4FREE.com</description>
<style type="text/css">
	.st0{fill:#FFFFFF;}
	.st1{fill:none;}
	.st2{fill:#FAB3A9;}
	.st3{fill:#E8B4BC;}
	.st4{fill:#C78283;}
</style>
<g id="Background">
	<rect class="st0" width="720" height="800"/>
</g>
<g id="Pattern">
	<g id="Hearts">
		<path class="st1" d="M693.08,0h-66.16c-3.2,12.78-20,21.55-26.92,30c-6.92-8.45-23.72-17.22-26.92-30h-66.16
			c-3.2,12.78-20,21.55-26.92,30c-6.92-8.45-23.72-17.22-26.92-30h-66.16c-3.2,12.78-20,21.55-26.92,30
			c-6.92-8.45-23.72-17.22-26.92-30h-66.16c-3.2,12.78-20,21.55-26.92,30c-6.92-8.45-23.72-17.22-26.92-30h-66.16
			c-3.2,12.78-20,21.55-26.92,30c-6.92-8.45-23.72-17.22-26.92-30H26.92C23.72,12.78,6.92,21.55,0,30v165.73
			C0,188.14,6.14,182,13.73,182c7.59,0,13.73,6.14,13.73,13.73C27.46,210.89,7.67,220.64,0,230v165.73C0,388.14,6.14,382,13.73,382
			c7.59,0,13.73,6.14,13.73,13.73C27.46,410.89,7.67,420.64,0,430v165.73C0,588.14,6.14,582,13.73,582
			c7.59,0,13.73,6.14,13.73,13.73C27.46,610.89,7.67,620.64,0,630v165.73C0,788.14,6.14,782,13.73,782
			c7.59,0,13.73,6.14,13.73,13.73c0,1.47-0.19,2.9-0.54,4.27h66.16c-0.35-1.38-0.54-2.8-0.54-4.27c0-7.59,6.14-13.73,13.73-13.73
			c7.59,0,13.73,6.14,13.73,13.73c0-7.59,6.14-13.73,13.73-13.73c7.59,0,13.73,6.14,13.73,13.73c0,1.47-0.19,2.9-0.54,4.27h66.16
			c-0.35-1.38-0.54-2.8-0.54-4.27c0-7.59,6.14-13.73,13.73-13.73c7.59,0,13.73,6.14,13.73,13.73c0-7.59,6.14-13.73,13.73-13.73
			c7.59,0,13.73,6.14,13.73,13.73c0,1.47-0.19,2.9-0.54,4.27h66.16c-0.35-1.38-0.54-2.8-0.54-4.27c0-7.59,6.14-13.73,13.73-13.73
			c7.59,0,13.73,6.14,13.73,13.73c0-7.59,6.14-13.73,13.73-13.73c7.59,0,13.73,6.14,13.73,13.73c0,1.47-0.19,2.9-0.54,4.27h66.16
			c-0.35-1.38-0.54-2.8-0.54-4.27c0-7.59,6.14-13.73,13.73-13.73c7.59,0,13.73,6.14,13.73,13.73c0-7.59,6.14-13.73,13.73-13.73
			c7.59,0,13.73,6.14,13.73,13.73c0,1.47-0.19,2.9-0.54,4.27h66.16c-0.35-1.38-0.54-2.8-0.54-4.27c0-7.59,6.14-13.73,13.73-13.73
			c7.59,0,13.73,6.14,13.73,13.73c0-7.59,6.14-13.73,13.73-13.73c7.59,0,13.73,6.14,13.73,13.73c0,1.47-0.19,2.9-0.54,4.27h66.16
			c-0.35-1.38-0.54-2.8-0.54-4.27c0-7.59,6.14-13.73,13.73-13.73c7.59,0,13.73,6.14,13.73,13.73V630
			c-7.67-9.36-27.46-19.11-27.46-34.27c0-7.59,6.14-13.73,13.73-13.73c7.59,0,13.73,6.14,13.73,13.73V430
			c-7.67-9.36-27.46-19.11-27.46-34.27c0-7.59,6.14-13.73,13.73-13.73c7.59,0,13.73,6.14,13.73,13.73V230
			c-7.67-9.36-27.46-19.11-27.46-34.27c0-7.59,6.14-13.73,13.73-13.73c7.59,0,13.73,6.14,13.73,13.73V30
			C713.08,21.55,696.28,12.78,693.08,0z M60,730c-7.67-9.36-27.46-19.11-27.46-34.27c0-7.59,6.14-13.73,13.73-13.73
			c7.59,0,13.73,6.14,13.73,13.73c0-7.59,6.14-13.73,13.73-13.73c7.59,0,13.73,6.14,13.73,13.73C87.46,710.89,67.67,720.64,60,730z
			 M60,530c-7.67-9.36-27.46-19.11-27.46-34.27c0-7.59,6.14-13.73,13.73-13.73c7.59,0,13.73,6.14,13.73,13.73
			c0-7.59,6.14-13.73,13.73-13.73c7.59,0,13.73,6.14,13.73,13.73C87.46,510.89,67.67,520.64,60,530z M60,330
			c-7.67-9.36-27.46-19.11-27.46-34.27c0-7.59,6.14-13.73,13.73-13.73c7.59,0,13.73,6.14,13.73,13.73c0-7.59,6.14-13.73,13.73-13.73
			c7.59,0,13.73,6.14,13.73,13.73C87.46,310.89,67.67,320.64,60,330z M60,130c-7.67-9.36-27.46-19.11-27.46-34.27
			c0-7.59,6.14-13.73,13.73-13.73C53.86,82,60,88.14,60,95.73C60,88.14,66.14,82,73.73,82c7.59,0,13.73,6.14,13.73,13.73
			C87.46,110.89,67.67,120.64,60,130z M120,630c-7.67-9.36-27.46-19.11-27.46-34.27c0-7.59,6.14-13.73,13.73-13.73
			c7.59,0,13.73,6.14,13.73,13.73c0-7.59,6.14-13.73,13.73-13.73c7.59,0,13.73,6.14,13.73,13.73
			C147.46,610.89,127.67,620.64,120,630z M120,430c-7.67-9.36-27.46-19.11-27.46-34.27c0-7.59,6.14-13.73,13.73-13.73
			c7.59,0,13.73,6.14,13.73,13.73c0-7.59,6.14-13.73,13.73-13.73c7.59,0,13.73,6.14,13.73,13.73
			C147.46,410.89,127.67,420.64,120,430z M120,230c-7.67-9.36-27.46-19.11-27.46-34.27c0-7.59,6.14-13.73,13.73-13.73
			c7.59,0,13.73,6.14,13.73,13.73c0-7.59,6.14-13.73,13.73-13.73c7.59,0,13.73,6.14,13.73,13.73
			C147.46,210.89,127.67,220.64,120,230z M180,730c-7.67-9.36-27.46-19.11-27.46-34.27c0-7.59,6.14-13.73,13.73-13.73
			c7.59,0,13.73,6.14,13.73,13.73c0-7.59,6.14-13.73,13.73-13.73c7.59,0,13.73,6.14,13.73,13.73
			C207.46,710.89,187.67,720.64,180,730z M180,530c-7.67-9.36-27.46-19.11-27.46-34.27c0-7.59,6.14-13.73,13.73-13.73
			c7.59,0,13.73,6.14,13.73,13.73c0-7.59,6.14-13.73,13.73-13.73c7.59,0,13.73,6.14,13.73,13.73
			C207.46,510.89,187.67,520.64,180,530z M180,330c-7.67-9.36-27.46-19.11-27.46-34.27c0-7.59,6.14-13.73,13.73-13.73
			c7.59,0,13.73,6.14,13.73,13.73c0-7.59,6.14-13.73,13.73-13.73c7.59,0,13.73,6.14,13.73,13.73
			C207.46,310.89,187.67,320.64,180,330z M180,130c-7.67-9.36-27.46-19.11-27.46-34.27c0-7.59,6.14-13.73,13.73-13.73
			c7.59,0,13.73,6.14,13.73,13.73c0-7.59,6.14-13.73,13.73-13.73c7.59,0,13.73,6.14,13.73,13.73
			C207.46,110.89,187.67,120.64,180,130z M240,630c-7.67-9.36-27.46-19.11-27.46-34.27c0-7.59,6.14-13.73,13.73-13.73
			c7.59,0,13.73,6.14,13.73,13.73c0-7.59,6.14-13.73,13.73-13.73c7.59,0,13.73,6.14,13.73,13.73
			C267.46,610.89,247.67,620.64,240,630z M240,430c-7.67-9.36-27.46-19.11-27.46-34.27c0-7.59,6.14-13.73,13.73-13.73
			c7.59,0,13.73,6.14,13.73,13.73c0-7.59,6.14-13.73,13.73-13.73c7.59,0,13.73,6.14,13.73,13.73
			C267.46,410.89,247.67,420.64,240,430z M240,230c-7.67-9.36-27.46-19.11-27.46-34.27c0-7.59,6.14-13.73,13.73-13.73
			c7.59,0,13.73,6.14,13.73,13.73c0-7.59,6.14-13.73,13.73-13.73c7.59,0,13.73,6.14,13.73,13.73
			C267.46,210.89,247.67,220.64,240,230z M300,730c-7.67-9.36-27.46-19.11-27.46-34.27c0-7.59,6.14-13.73,13.73-13.73
			c7.59,0,13.73,6.14,13.73,13.73c0-7.59,6.14-13.73,13.73-13.73c7.59,0,13.73,6.14,13.73,13.73
			C327.46,710.89,307.67,720.64,300,730z M300,530c-7.67-9.36-27.46-19.11-27.46-34.27c0-7.59,6.14-13.73,13.73-13.73
			c7.59,0,13.73,6.14,13.73,13.73c0-7.59,6.14-13.73,13.73-13.73c7.59,0,13.73,6.14,13.73,13.73
			C327.46,510.89,307.67,520.64,300,530z M300,330c-7.67-9.36-27.46-19.11-27.46-34.27c0-7.59,6.14-13.73,13.73-13.73
			c7.59,0,13.73,6.14,13.73,13.73c0-7.59,6.14-13.73,13.73-13.73c7.59,0,13.73,6.14,13.73,13.73
			C327.46,310.89,307.67,320.64,300,330z M300,130c-7.67-9.36-27.46-19.11-27.46-34.27c0-7.59,6.14-13.73,13.73-13.73
			c7.59,0,13.73,6.14,13.73,13.73c0-7.59,6.14-13.73,13.73-13.73c7.59,0,13.73,6.14,13.73,13.73
			C327.46,110.89,307.67,120.64,300,130z M360,630c-7.67-9.36-27.46-19.11-27.46-34.27c0-7.59,6.14-13.73,13.73-13.73
			c7.59,0,13.73,6.14,13.73,13.73c0-7.59,6.14-13.73,13.73-13.73c7.59,0,13.73,6.14,13.73,13.73
			C387.46,610.89,367.67,620.64,360,630z M360,430c-7.67-9.36-27.46-19.11-27.46-34.27c0-7.59,6.14-13.73,13.73-13.73
			c7.59,0,13.73,6.14,13.73,13.73c0-7.59,6.14-13.73,13.73-13.73c7.59,0,13.73,6.14,13.73,13.73
			C387.46,410.89,367.67,420.64,360,430z M360,230c-7.67-9.36-27.46-19.11-27.46-34.27c0-7.59,6.14-13.73,13.73-13.73
			c7.59,0,13.73,6.14,13.73,13.73c0-7.59,6.14-13.73,13.73-13.73c7.59,0,13.73,6.14,13.73,13.73
			C387.46,210.89,367.67,220.64,360,230z M420,730c-7.67-9.36-27.46-19.11-27.46-34.27c0-7.59,6.14-13.73,13.73-13.73
			c7.59,0,13.73,6.14,13.73,13.73c0-7.59,6.14-13.73,13.73-13.73c7.59,0,13.73,6.14,13.73,13.73
			C447.46,710.89,427.67,720.64,420,730z M420,530c-7.67-9.36-27.46-19.11-27.46-34.27c0-7.59,6.14-13.73,13.73-13.73
			c7.59,0,13.73,6.14,13.73,13.73c0-7.59,6.14-13.73,13.73-13.73c7.59,0,13.73,6.14,13.73,13.73
			C447.46,510.89,427.67,520.64,420,530z M420,330c-7.67-9.36-27.46-19.11-27.46-34.27c0-7.59,6.14-13.73,13.73-13.73
			c7.59,0,13.73,6.14,13.73,13.73c0-7.59,6.14-13.73,13.73-13.73c7.59,0,13.73,6.14,13.73,13.73
			C447.46,310.89,427.67,320.64,420,330z M420,130c-7.67-9.36-27.46-19.11-27.46-34.27c0-7.59,6.14-13.73,13.73-13.73
			c7.59,0,13.73,6.14,13.73,13.73c0-7.59,6.14-13.73,13.73-13.73c7.59,0,13.73,6.14,13.73,13.73
			C447.46,110.89,427.67,120.64,420,130z M480,630c-7.67-9.36-27.46-19.11-27.46-34.27c0-7.59,6.14-13.73,13.73-13.73
			c7.59,0,13.73,6.14,13.73,13.73c0-7.59,6.14-13.73,13.73-13.73c7.59,0,13.73,6.14,13.73,13.73
			C507.46,610.89,487.67,620.64,480,630z M480,430c-7.67-9.36-27.46-19.11-27.46-34.27c0-7.59,6.14-13.73,13.73-13.73
			c7.59,0,13.73,6.14,13.73,13.73c0-7.59,6.14-13.73,13.73-13.73c7.59,0,13.73,6.14,13.73,13.73
			C507.46,410.89,487.67,420.64,480,430z M480,230c-7.67-9.36-27.46-19.11-27.46-34.27c0-7.59,6.14-13.73,13.73-13.73
			c7.59,0,13.73,6.14,13.73,13.73c0-7.59,6.14-13.73,13.73-13.73c7.59,0,13.73,6.14,13.73,13.73
			C507.46,210.89,487.67,220.64,480,230z M540,730c-7.67-9.36-27.46-19.11-27.46-34.27c0-7.59,6.14-13.73,13.73-13.73
			c7.59,0,13.73,6.14,13.73,13.73c0-7.59,6.14-13.73,13.73-13.73c7.59,0,13.73,6.14,13.73,13.73
			C567.46,710.89,547.67,720.64,540,730z M540,530c-7.67-9.36-27.46-19.11-27.46-34.27c0-7.59,6.14-13.73,13.73-13.73
			c7.59,0,13.73,6.14,13.73,13.73c0-7.59,6.14-13.73,13.73-13.73c7.59,0,13.73,6.14,13.73,13.73
			C567.46,510.89,547.67,520.64,540,530z M540,330c-7.67-9.36-27.46-19.11-27.46-34.27c0-7.59,6.14-13.73,13.73-13.73
			c7.59,0,13.73,6.14,13.73,13.73c0-7.59,6.14-13.73,13.73-13.73c7.59,0,13.73,6.14,13.73,13.73
			C567.46,310.89,547.67,320.64,540,330z M540,130c-7.67-9.36-27.46-19.11-27.46-34.27c0-7.59,6.14-13.73,13.73-13.73
			c7.59,0,13.73,6.14,13.73,13.73c0-7.59,6.14-13.73,13.73-13.73c7.59,0,13.73,6.14,13.73,13.73
			C567.46,110.89,547.67,120.64,540,130z M600,630c-7.67-9.36-27.46-19.11-27.46-34.27c0-7.59,6.14-13.73,13.73-13.73
			c7.59,0,13.73,6.14,13.73,13.73c0-7.59,6.14-13.73,13.73-13.73c7.59,0,13.73,6.14,13.73,13.73
			C627.46,610.89,607.67,620.64,600,630z M600,430c-7.67-9.36-27.46-19.11-27.46-34.27c0-7.59,6.14-13.73,13.73-13.73
			c7.59,0,13.73,6.14,13.73,13.73c0-7.59,6.14-13.73,13.73-13.73c7.59,0,13.73,6.14,13.73,13.73
			C627.46,410.89,607.67,420.64,600,430z M600,230c-7.67-9.36-27.46-19.11-27.46-34.27c0-7.59,6.14-13.73,13.73-13.73
			c7.59,0,13.73,6.14,13.73,13.73c0-7.59,6.14-13.73,13.73-13.73c7.59,0,13.73,6.14,13.73,13.73
			C627.46,210.89,607.67,220.64,600,230z M660,730c-7.67-9.36-27.46-19.11-27.46-34.27c0-7.59,6.14-13.73,13.73-13.73
			c7.59,0,13.73,6.14,13.73,13.73c0-7.59,6.14-13.73,13.73-13.73c7.59,0,13.73,6.14,13.73,13.73
			C687.46,710.89,667.67,720.64,660,730z M660,530c-7.67-9.36-27.46-19.11-27.46-34.27c0-7.59,6.14-13.73,13.73-13.73
			c7.59,0,13.73,6.14,13.73,13.73c0-7.59,6.14-13.73,13.73-13.73c7.59,0,13.73,6.14,13.73,13.73
			C687.46,510.89,667.67,520.64,660,530z M660,330c-7.67-9.36-27.46-19.11-27.46-34.27c0-7.59,6.14-13.73,13.73-13.73
			c7.59,0,13.73,6.14,13.73,13.73c0-7.59,6.14-13.73,13.73-13.73c7.59,0,13.73,6.14,13.73,13.73
			C687.46,310.89,667.67,320.64,660,330z M660,130c-7.67-9.36-27.46-19.11-27.46-34.27c0-7.59,6.14-13.73,13.73-13.73
			c7.59,0,13.73,6.14,13.73,13.73c0-7.59,6.14-13.73,13.73-13.73c7.59,0,13.73,6.14,13.73,13.73
			C687.46,110.89,667.67,120.64,660,130z"/>
		<path class="st2" d="M26.92,0H0v30C6.92,21.55,23.72,12.78,26.92,0z"/>
		<path class="st3" d="M120,30c6.92-8.45,23.72-17.22,26.92-30H93.08C96.28,12.78,113.08,21.55,120,30z"/>
		<path class="st4" d="M240,30c6.92-8.45,23.72-17.22,26.92-30h-53.84C216.28,12.78,233.08,21.55,240,30z"/>
		<path class="st2" d="M360,30c6.92-8.45,23.72-17.22,26.92-30h-53.84C336.28,12.78,353.08,21.55,360,30z"/>
		<path class="st3" d="M480,30c6.92-8.45,23.72-17.22,26.92-30h-53.84C456.28,12.78,473.08,21.55,480,30z"/>
		<path class="st4" d="M600,30c6.92-8.45,23.72-17.22,26.92-30h-53.84C576.28,12.78,593.08,21.55,600,30z"/>
		<path class="st2" d="M27.46,195.73c0-7.59-6.14-13.73-13.73-13.73C6.14,182,0,188.14,0,195.73V230
			C7.67,220.64,27.46,210.89,27.46,195.73z"/>
		<path class="st3" d="M133.73,182c-7.59,0-13.73,6.14-13.73,13.73c0-7.59-6.14-13.73-13.73-13.73c-7.59,0-13.73,6.14-13.73,13.73
			c0,15.16,19.79,24.91,27.46,34.27c7.67-9.36,27.46-19.11,27.46-34.27C147.46,188.14,141.32,182,133.73,182z"/>
		<path class="st4" d="M253.73,182c-7.59,0-13.73,6.14-13.73,13.73c0-7.59-6.14-13.73-13.73-13.73c-7.59,0-13.73,6.14-13.73,13.73
			c0,15.16,19.79,24.91,27.46,34.27c7.67-9.36,27.46-19.11,27.46-34.27C267.46,188.14,261.32,182,253.73,182z"/>
		<path class="st2" d="M373.73,182c-7.59,0-13.73,6.14-13.73,13.73c0-7.59-6.14-13.73-13.73-13.73c-7.59,0-13.73,6.14-13.73,13.73
			c0,15.16,19.79,24.91,27.46,34.27c7.67-9.36,27.46-19.11,27.46-34.27C387.46,188.14,381.32,182,373.73,182z"/>
		<path class="st3" d="M493.73,182c-7.59,0-13.73,6.14-13.73,13.73c0-7.59-6.14-13.73-13.73-13.73c-7.59,0-13.73,6.14-13.73,13.73
			c0,15.16,19.79,24.91,27.46,34.27c7.67-9.36,27.46-19.11,27.46-34.27C507.46,188.14,501.32,182,493.73,182z"/>
		<path class="st4" d="M613.73,182c-7.59,0-13.73,6.14-13.73,13.73c0-7.59-6.14-13.73-13.73-13.73c-7.59,0-13.73,6.14-13.73,13.73
			c0,15.16,19.79,24.91,27.46,34.27c7.67-9.36,27.46-19.11,27.46-34.27C627.46,188.14,621.32,182,613.73,182z"/>
		<path class="st2" d="M73.73,82C66.14,82,60,88.14,60,95.73C60,88.14,53.86,82,46.27,82c-7.59,0-13.73,6.14-13.73,13.73
			c0,15.16,19.79,24.91,27.46,34.27c7.67-9.36,27.46-19.11,27.46-34.27C87.46,88.14,81.32,82,73.73,82z"/>
		<path class="st3" d="M193.73,82C186.14,82,180,88.14,180,95.73c0-7.59-6.14-13.73-13.73-13.73c-7.59,0-13.73,6.14-13.73,13.73
			c0,15.16,19.79,24.91,27.46,34.27c7.67-9.36,27.46-19.11,27.46-34.27C207.46,88.14,201.32,82,193.73,82z"/>
		<path class="st4" d="M313.73,82C306.14,82,300,88.14,300,95.73c0-7.59-6.14-13.73-13.73-13.73c-7.59,0-13.73,6.14-13.73,13.73
			c0,15.16,19.79,24.91,27.46,34.27c7.67-9.36,27.46-19.11,27.46-34.27C327.46,88.14,321.32,82,313.73,82z"/>
		<path class="st2" d="M433.73,82C426.14,82,420,88.14,420,95.73c0-7.59-6.14-13.73-13.73-13.73c-7.59,0-13.73,6.14-13.73,13.73
			c0,15.16,19.79,24.91,27.46,34.27c7.67-9.36,27.46-19.11,27.46-34.27C447.46,88.14,441.32,82,433.73,82z"/>
		<path class="st3" d="M553.73,82C546.14,82,540,88.14,540,95.73c0-7.59-6.14-13.73-13.73-13.73c-7.59,0-13.73,6.14-13.73,13.73
			c0,15.16,19.79,24.91,27.46,34.27c7.67-9.36,27.46-19.11,27.46-34.27C567.46,88.14,561.32,82,553.73,82z"/>
		<path class="st4" d="M673.73,82C666.14,82,660,88.14,660,95.73c0-7.59-6.14-13.73-13.73-13.73c-7.59,0-13.73,6.14-13.73,13.73
			c0,15.16,19.79,24.91,27.46,34.27c7.67-9.36,27.46-19.11,27.46-34.27C687.46,88.14,681.32,82,673.73,82z"/>
		<path class="st2" d="M73.73,282C66.14,282,60,288.14,60,295.73c0-7.59-6.14-13.73-13.73-13.73c-7.59,0-13.73,6.14-13.73,13.73
			c0,15.16,19.79,24.91,27.46,34.27c7.67-9.36,27.46-19.11,27.46-34.27C87.46,288.14,81.32,282,73.73,282z"/>
		<path class="st3" d="M193.73,282c-7.59,0-13.73,6.14-13.73,13.73c0-7.59-6.14-13.73-13.73-13.73c-7.59,0-13.73,6.14-13.73,13.73
			c0,15.16,19.79,24.91,27.46,34.27c7.67-9.36,27.46-19.11,27.46-34.27C207.46,288.14,201.32,282,193.73,282z"/>
		<path class="st4" d="M313.73,282c-7.59,0-13.73,6.14-13.73,13.73c0-7.59-6.14-13.73-13.73-13.73c-7.59,0-13.73,6.14-13.73,13.73
			c0,15.16,19.79,24.91,27.46,34.27c7.67-9.36,27.46-19.11,27.46-34.27C327.46,288.14,321.32,282,313.73,282z"/>
		<path class="st2" d="M433.73,282c-7.59,0-13.73,6.14-13.73,13.73c0-7.59-6.14-13.73-13.73-13.73c-7.59,0-13.73,6.14-13.73,13.73
			c0,15.16,19.79,24.91,27.46,34.27c7.67-9.36,27.46-19.11,27.46-34.27C447.46,288.14,441.32,282,433.73,282z"/>
		<path class="st3" d="M553.73,282c-7.59,0-13.73,6.14-13.73,13.73c0-7.59-6.14-13.73-13.73-13.73c-7.59,0-13.73,6.14-13.73,13.73
			c0,15.16,19.79,24.91,27.46,34.27c7.67-9.36,27.46-19.11,27.46-34.27C567.46,288.14,561.32,282,553.73,282z"/>
		<path class="st4" d="M673.73,282c-7.59,0-13.73,6.14-13.73,13.73c0-7.59-6.14-13.73-13.73-13.73c-7.59,0-13.73,6.14-13.73,13.73
			c0,15.16,19.79,24.91,27.46,34.27c7.67-9.36,27.46-19.11,27.46-34.27C687.46,288.14,681.32,282,673.73,282z"/>
		<path class="st2" d="M27.46,395.73c0-7.59-6.14-13.73-13.73-13.73C6.14,382,0,388.14,0,395.73V430
			C7.67,420.64,27.46,410.89,27.46,395.73z"/>
		<path class="st3" d="M133.73,382c-7.59,0-13.73,6.14-13.73,13.73c0-7.59-6.14-13.73-13.73-13.73c-7.59,0-13.73,6.14-13.73,13.73
			c0,15.16,19.79,24.91,27.46,34.27c7.67-9.36,27.46-19.11,27.46-34.27C147.46,388.14,141.32,382,133.73,382z"/>
		<path class="st4" d="M253.73,382c-7.59,0-13.73,6.14-13.73,13.73c0-7.59-6.14-13.73-13.73-13.73c-7.59,0-13.73,6.14-13.73,13.73
			c0,15.16,19.79,24.91,27.46,34.27c7.67-9.36,27.46-19.11,27.46-34.27C267.46,388.14,261.32,382,253.73,382z"/>
		<path class="st2" d="M373.73,382c-7.59,0-13.73,6.14-13.73,13.73c0-7.59-6.14-13.73-13.73-13.73c-7.59,0-13.73,6.14-13.73,13.73
			c0,15.16,19.79,24.91,27.46,34.27c7.67-9.36,27.46-19.11,27.46-34.27C387.46,388.14,381.32,382,373.73,382z"/>
		<path class="st3" d="M493.73,382c-7.59,0-13.73,6.14-13.73,13.73c0-7.59-6.14-13.73-13.73-13.73c-7.59,0-13.73,6.14-13.73,13.73
			c0,15.16,19.79,24.91,27.46,34.27c7.67-9.36,27.46-19.11,27.46-34.27C507.46,388.14,501.32,382,493.73,382z"/>
		<path class="st4" d="M613.73,382c-7.59,0-13.73,6.14-13.73,13.73c0-7.59-6.14-13.73-13.73-13.73c-7.59,0-13.73,6.14-13.73,13.73
			c0,15.16,19.79,24.91,27.46,34.27c7.67-9.36,27.46-19.11,27.46-34.27C627.46,388.14,621.32,382,613.73,382z"/>
		<path class="st2" d="M27.46,595.73c0-7.59-6.14-13.73-13.73-13.73C6.14,582,0,588.14,0,595.73V630
			C7.67,620.64,27.46,610.89,27.46,595.73z"/>
		<path class="st3" d="M133.73,582c-7.59,0-13.73,6.14-13.73,13.73c0-7.59-6.14-13.73-13.73-13.73c-7.59,0-13.73,6.14-13.73,13.73
			c0,15.16,19.79,24.91,27.46,34.27c7.67-9.36,27.46-19.11,27.46-34.27C147.46,588.14,141.32,582,133.73,582z"/>
		<path class="st4" d="M253.73,582c-7.59,0-13.73,6.14-13.73,13.73c0-7.59-6.14-13.73-13.73-13.73c-7.59,0-13.73,6.14-13.73,13.73
			c0,15.16,19.79,24.91,27.46,34.27c7.67-9.36,27.46-19.11,27.46-34.27C267.46,588.14,261.32,582,253.73,582z"/>
		<path class="st2" d="M373.73,582c-7.59,0-13.73,6.14-13.73,13.73c0-7.59-6.14-13.73-13.73-13.73c-7.59,0-13.73,6.14-13.73,13.73
			c0,15.16,19.79,24.91,27.46,34.27c7.67-9.36,27.46-19.11,27.46-34.27C387.46,588.14,381.32,582,373.73,582z"/>
		<path class="st3" d="M493.73,582c-7.59,0-13.73,6.14-13.73,13.73c0-7.59-6.14-13.73-13.73-13.73c-7.59,0-13.73,6.14-13.73,13.73
			c0,15.16,19.79,24.91,27.46,34.27c7.67-9.36,27.46-19.11,27.46-34.27C507.46,588.14,501.32,582,493.73,582z"/>
		<path class="st4" d="M613.73,582c-7.59,0-13.73,6.14-13.73,13.73c0-7.59-6.14-13.73-13.73-13.73c-7.59,0-13.73,6.14-13.73,13.73
			c0,15.16,19.79,24.91,27.46,34.27c7.67-9.36,27.46-19.11,27.46-34.27C627.46,588.14,621.32,582,613.73,582z"/>
		<path class="st2" d="M73.73,482C66.14,482,60,488.14,60,495.73c0-7.59-6.14-13.73-13.73-13.73c-7.59,0-13.73,6.14-13.73,13.73
			c0,15.16,19.79,24.91,27.46,34.27c7.67-9.36,27.46-19.11,27.46-34.27C87.46,488.14,81.32,482,73.73,482z"/>
		<path class="st3" d="M193.73,482c-7.59,0-13.73,6.14-13.73,13.73c0-7.59-6.14-13.73-13.73-13.73c-7.59,0-13.73,6.14-13.73,13.73
			c0,15.16,19.79,24.91,27.46,34.27c7.67-9.36,27.46-19.11,27.46-34.27C207.46,488.14,201.32,482,193.73,482z"/>
		<path class="st4" d="M313.73,482c-7.59,0-13.73,6.14-13.73,13.73c0-7.59-6.14-13.73-13.73-13.73c-7.59,0-13.73,6.14-13.73,13.73
			c0,15.16,19.79,24.91,27.46,34.27c7.67-9.36,27.46-19.11,27.46-34.27C327.46,488.14,321.32,482,313.73,482z"/>
		<path class="st2" d="M433.73,482c-7.59,0-13.73,6.14-13.73,13.73c0-7.59-6.14-13.73-13.73-13.73c-7.59,0-13.73,6.14-13.73,13.73
			c0,15.16,19.79,24.91,27.46,34.27c7.67-9.36,27.46-19.11,27.46-34.27C447.46,488.14,441.32,482,433.73,482z"/>
		<path class="st2" d="M720,30V0h-26.92C696.28,12.78,713.08,21.55,720,30z"/>
		<path class="st3" d="M553.73,482c-7.59,0-13.73,6.14-13.73,13.73c0-7.59-6.14-13.73-13.73-13.73c-7.59,0-13.73,6.14-13.73,13.73
			c0,15.16,19.79,24.91,27.46,34.27c7.67-9.36,27.46-19.11,27.46-34.27C567.46,488.14,561.32,482,553.73,482z"/>
		<path class="st4" d="M673.73,482c-7.59,0-13.73,6.14-13.73,13.73c0-7.59-6.14-13.73-13.73-13.73c-7.59,0-13.73,6.14-13.73,13.73
			c0,15.16,19.79,24.91,27.46,34.27c7.67-9.36,27.46-19.11,27.46-34.27C687.46,488.14,681.32,482,673.73,482z"/>
		<path class="st2" d="M73.73,682C66.14,682,60,688.14,60,695.73c0-7.59-6.14-13.73-13.73-13.73c-7.59,0-13.73,6.14-13.73,13.73
			c0,15.16,19.79,24.91,27.46,34.27c7.67-9.36,27.46-19.11,27.46-34.27C87.46,688.14,81.32,682,73.73,682z"/>
		<path class="st3" d="M193.73,682c-7.59,0-13.73,6.14-13.73,13.73c0-7.59-6.14-13.73-13.73-13.73c-7.59,0-13.73,6.14-13.73,13.73
			c0,15.16,19.79,24.91,27.46,34.27c7.67-9.36,27.46-19.11,27.46-34.27C207.46,688.14,201.32,682,193.73,682z"/>
		<path class="st4" d="M313.73,682c-7.59,0-13.73,6.14-13.73,13.73c0-7.59-6.14-13.73-13.73-13.73c-7.59,0-13.73,6.14-13.73,13.73
			c0,15.16,19.79,24.91,27.46,34.27c7.67-9.36,27.46-19.11,27.46-34.27C327.46,688.14,321.32,682,313.73,682z"/>
		<path class="st2" d="M433.73,682c-7.59,0-13.73,6.14-13.73,13.73c0-7.59-6.14-13.73-13.73-13.73c-7.59,0-13.73,6.14-13.73,13.73
			c0,15.16,19.79,24.91,27.46,34.27c7.67-9.36,27.46-19.11,27.46-34.27C447.46,688.14,441.32,682,433.73,682z"/>
		<path class="st2" d="M706.27,182c-7.59,0-13.73,6.14-13.73,13.73c0,15.16,19.79,24.91,27.46,34.27v-34.27
			C720,188.14,713.86,182,706.27,182z"/>
		<path class="st3" d="M553.73,682c-7.59,0-13.73,6.14-13.73,13.73c0-7.59-6.14-13.73-13.73-13.73c-7.59,0-13.73,6.14-13.73,13.73
			c0,15.16,19.79,24.91,27.46,34.27c7.67-9.36,27.46-19.11,27.46-34.27C567.46,688.14,561.32,682,553.73,682z"/>
		<path class="st4" d="M673.73,682c-7.59,0-13.73,6.14-13.73,13.73c0-7.59-6.14-13.73-13.73-13.73c-7.59,0-13.73,6.14-13.73,13.73
			c0,15.16,19.79,24.91,27.46,34.27c7.67-9.36,27.46-19.11,27.46-34.27C687.46,688.14,681.32,682,673.73,682z"/>
		<path class="st2" d="M13.73,782C6.14,782,0,788.14,0,795.73V800h26.92c0.35-1.38,0.54-2.8,0.54-4.27
			C27.46,788.14,21.32,782,13.73,782z"/>
		<path class="st3" d="M133.73,782c-7.59,0-13.73,6.14-13.73,13.73c0-7.59-6.14-13.73-13.73-13.73c-7.59,0-13.73,6.14-13.73,13.73
			c0,1.47,0.19,2.9,0.54,4.27h53.84c0.35-1.38,0.54-2.8,0.54-4.27C147.46,788.14,141.32,782,133.73,782z"/>
		<path class="st4" d="M253.73,782c-7.59,0-13.73,6.14-13.73,13.73c0-7.59-6.14-13.73-13.73-13.73c-7.59,0-13.73,6.14-13.73,13.73
			c0,1.47,0.19,2.9,0.54,4.27h53.84c0.35-1.38,0.54-2.8,0.54-4.27C267.46,788.14,261.32,782,253.73,782z"/>
		<path class="st2" d="M373.73,782c-7.59,0-13.73,6.14-13.73,13.73c0-7.59-6.14-13.73-13.73-13.73c-7.59,0-13.73,6.14-13.73,13.73
			c0,1.47,0.19,2.9,0.54,4.27h53.84c0.35-1.38,0.54-2.8,0.54-4.27C387.46,788.14,381.32,782,373.73,782z"/>
		<path class="st3" d="M493.73,782c-7.59,0-13.73,6.14-13.73,13.73c0-7.59-6.14-13.73-13.73-13.73c-7.59,0-13.73,6.14-13.73,13.73
			c0,1.47,0.19,2.9,0.54,4.27h53.84c0.35-1.38,0.54-2.8,0.54-4.27C507.46,788.14,501.32,782,493.73,782z"/>
		<path class="st4" d="M613.73,782c-7.59,0-13.73,6.14-13.73,13.73c0-7.59-6.14-13.73-13.73-13.73c-7.59,0-13.73,6.14-13.73,13.73
			c0,1.47,0.19,2.9,0.54,4.27h53.84c0.35-1.38,0.54-2.8,0.54-4.27C627.46,788.14,621.32,782,613.73,782z"/>
		<path class="st2" d="M706.27,382c-7.59,0-13.73,6.14-13.73,13.73c0,15.16,19.79,24.91,27.46,34.27v-34.27
			C720,388.14,713.86,382,706.27,382z"/>
		<path class="st2" d="M706.27,582c-7.59,0-13.73,6.14-13.73,13.73c0,15.16,19.79,24.91,27.46,34.27v-34.27
			C720,588.14,713.86,582,706.27,582z"/>
		<path class="st2" d="M706.27,782c-7.59,0-13.73,6.14-13.73,13.73c0,1.47,0.19,2.9,0.54,4.27H720v-4.27
			C720,788.14,713.86,782,706.27,782z"/>
	</g>
</g>
</svg>
